<svg width="24" height="24" viewBox="0 0 24 24" fill="none" xmlns="http://www.w3.org/2000/svg">
<path d="M22.846 14.7984L20.8491 13.6453C21.0507 12.5578 21.0507 11.4422 20.8491 10.3547L22.846 9.20156C23.0757 9.07031 23.1788 8.79843 23.1038 8.54531C22.5835 6.87656 21.6975 5.36718 20.5397 4.11093C20.3616 3.91875 20.071 3.87187 19.846 4.00312L17.8491 5.15625C17.01 4.43437 16.0444 3.87656 14.9991 3.51093V1.20937C14.9991 0.94687 14.8163 0.717183 14.5585 0.660933C12.8382 0.276558 11.0757 0.295308 9.43974 0.660933C9.18192 0.717183 8.99911 0.94687 8.99911 1.20937V3.51562C7.95849 3.88593 6.99286 4.44375 6.14911 5.16093L4.15693 4.00781C3.92724 3.87656 3.6413 3.91875 3.46318 4.11562C2.30536 5.36718 1.41943 6.87656 0.899115 8.55C0.819427 8.80312 0.92724 9.075 1.15693 9.20625L3.1538 10.3594C2.95224 11.4469 2.95224 12.5625 3.1538 13.65L1.15693 14.8031C0.92724 14.9344 0.824115 15.2062 0.899115 15.4594C1.41943 17.1281 2.30536 18.6375 3.46318 19.8937C3.6413 20.0859 3.93193 20.1328 4.15693 20.0016L6.1538 18.8484C6.99286 19.5703 7.95849 20.1281 9.0038 20.4937V22.8C9.0038 23.0625 9.18661 23.2922 9.44442 23.3484C11.1647 23.7328 12.9272 23.7141 14.5632 23.3484C14.821 23.2922 15.0038 23.0625 15.0038 22.8V20.4937C16.0444 20.1234 17.01 19.5656 17.8538 18.8484L19.8507 20.0016C20.0804 20.1328 20.3663 20.0906 20.5444 19.8937C21.7022 18.6422 22.5882 17.1328 23.1085 15.4594C23.1788 15.2016 23.0757 14.9297 22.846 14.7984V14.7984ZM11.9991 15.75C9.93192 15.75 8.24911 14.0672 8.24911 12C8.24911 9.93281 9.93192 8.25 11.9991 8.25C14.0663 8.25 15.7491 9.93281 15.7491 12C15.7491 14.0672 14.0663 15.75 11.9991 15.75Z" fill="white"/>
</svg>
