<svg width="33" height="24" viewBox="0 0 33 24" fill="none" xmlns="http://www.w3.org/2000/svg">
<path d="M23.5039 13.695C25.5589 15.09 26.9989 16.98 26.9989 19.5V24H32.9989V19.5C32.9989 16.23 27.6439 14.295 23.5039 13.695Z" fill="white"/>
<path d="M20.9989 12C24.3139 12 26.9989 9.315 26.9989 6C26.9989 2.685 24.3139 0 20.9989 0C20.2939 0 19.6339 0.15 19.0039 0.36C20.2489 1.905 20.9989 3.87 20.9989 6C20.9989 8.13 20.2489 10.095 19.0039 11.64C19.6339 11.85 20.2939 12 20.9989 12Z" fill="white"/>
<path d="M12 12C15.315 12 18 9.315 18 6C18 2.685 15.315 0 12 0C8.685 0 6 2.685 6 6C6 9.315 8.685 12 12 12ZM12 3C13.65 3 15 4.35 15 6C15 7.65 13.65 9 12 9C10.35 9 9 7.65 9 6C9 4.35 10.35 3 12 3Z" fill="white"/>
<path d="M12 13.5C7.995 13.5 0 15.51 0 19.5V24H24V19.5C24 15.51 16.005 13.5 12 13.5ZM21 21H3V19.515C3.3 18.435 7.95 16.5 12 16.5C16.05 16.5 20.7 18.435 21 19.5V21Z" fill="white"/>
</svg>
