<svg width="36" height="36" viewBox="0 0 36 36" fill="none" xmlns="http://www.w3.org/2000/svg">
<path d="M28.5 4.5H22.23C21.6 2.76 19.95 1.5 18 1.5C16.05 1.5 14.4 2.76 13.77 4.5H7.5C5.85 4.5 4.5 5.85 4.5 7.5V28.5C4.5 30.15 5.85 31.5 7.5 31.5H28.5C30.15 31.5 31.5 30.15 31.5 28.5V7.5C31.5 5.85 30.15 4.5 28.5 4.5ZM18 4.125C18.615 4.125 19.125 4.635 19.125 5.25C19.125 5.865 18.615 6.375 18 6.375C17.385 6.375 16.875 5.865 16.875 5.25C16.875 4.635 17.385 4.125 18 4.125ZM28.5 28.5H7.5V7.5H28.5V28.5Z" fill="white"/>
<path d="M22.62 16.545L19.44 13.365L10.5 22.29V25.5H13.65L22.62 16.545Z" fill="white"/>
<path d="M25.2759 13.905C25.5759 13.605 25.5759 13.14 25.2759 12.84L23.1609 10.725C22.8609 10.425 22.3959 10.425 22.0959 10.725L20.5059 12.315L23.6859 15.495L25.2759 13.905Z" fill="white"/>
</svg>
