<svg width="32" height="8" viewBox="0 0 32 8" fill="none" xmlns="http://www.w3.org/2000/svg">
<path d="M0.25 4C0.25 1.93807 1.93807 0.25 4 0.25C6.06193 0.25 7.75 1.93807 7.75 4C7.75 6.06193 6.06193 7.75 4 7.75C1.93807 7.75 0.25 6.06193 0.25 4ZM24.25 4C24.25 1.93807 25.9381 0.25 28 0.25C30.0619 0.25 31.75 1.93807 31.75 4C31.75 6.06193 30.0619 7.75 28 7.75C25.9381 7.75 24.25 6.06193 24.25 4ZM12.25 4C12.25 1.93807 13.9381 0.25 16 0.25C18.0619 0.25 19.75 1.93807 19.75 4C19.75 6.06193 18.0619 7.75 16 7.75C13.9381 7.75 12.25 6.06193 12.25 4Z" fill="white" stroke="black" stroke-width="0.5"/>
</svg>
